<svg width="920" height="620"><g transform="translate(50,50)"><image x="12" y="-12.657894736842104" height="26" width="41" xmlns:xlink="http://www.w3.org/1999/xlink" xlink:href="/icons/Chelsea.png"></image><image x="52" y="14.657894736842104" height="26" width="41" xmlns:xlink="http://www.w3.org/1999/xlink" xlink:href="/icons/ManchesterCity.png"></image><image x="92" y="41.97368421052631" height="26" width="41" xmlns:xlink="http://www.w3.org/1999/xlink" xlink:href="/icons/Arsenal.png"></image><image x="132" y="69.28947368421052" height="26" width="41" xmlns:xlink="http://www.w3.org/1999/xlink" xlink:href="/icons/ManchesterUnited.png"></image><image x="172" y="96.60526315789473" height="26" width="41" xmlns:xlink="http://www.w3.org/1999/xlink" xlink:href="/icons/TottenhamHotspur.png"></image><image x="212" y="123.92105263157893" height="26" width="41" xmlns:xlink="http://www.w3.org/1999/xlink" xlink:href="/icons/Liverpool.png"></image><image x="252" y="151.23684210526318" height="26" width="41" xmlns:xlink="http://www.w3.org/1999/xlink" xlink:href="/icons/Southampton.png"></image><image x="292" y="178.55263157894737" height="26" width="41" xmlns:xlink="http://www.w3.org/1999/xlink" xlink:href="/icons/SwanseaCity.png"></image><image x="332" y="205.8684210526316" height="26" width="41" xmlns:xlink="http://www.w3.org/1999/xlink" xlink:href="/icons/StokeCity.png"></image><image x="372" y="233.18421052631578" height="26" width="41" xmlns:xlink="http://www.w3.org/1999/xlink" xlink:href="/icons/CrystalPalace.png"></image><image x="412" y="260.5" height="26" width="41" xmlns:xlink="http://www.w3.org/1999/xlink" xlink:href="/icons/Everton.png"></image><image x="452" y="287.8157894736843" height="26" width="41" xmlns:xlink="http://www.w3.org/1999/xlink" xlink:href="/icons/WestHamUnited.png"></image><image x="492" y="315.13157894736844" height="26" width="41" xmlns:xlink="http://www.w3.org/1999/xlink" xlink:href="/icons/WestBromwichAlbion.png"></image><image x="532" y="342.44736842105266" height="26" width="41" xmlns:xlink="http://www.w3.org/1999/xlink" xlink:href="/icons/LeicesterCity.png"></image><image x="572" y="369.7631578947368" height="26" width="41" xmlns:xlink="http://www.w3.org/1999/xlink" xlink:href="/icons/NewcastleUnited.png"></image><image x="612" y="397.0789473684211" height="26" width="41" xmlns:xlink="http://www.w3.org/1999/xlink" xlink:href="/icons/Sunderland.png"></image><image x="652" y="424.39473684210526" height="26" width="41" xmlns:xlink="http://www.w3.org/1999/xlink" xlink:href="/icons/AstonVilla.png"></image><image x="692" y="451.71052631578954" height="26" width="41" xmlns:xlink="http://www.w3.org/1999/xlink" xlink:href="/icons/Bournemouth.png"></image><image x="732" y="479.02631578947364" height="26" width="41" xmlns:xlink="http://www.w3.org/1999/xlink" xlink:href="/icons/Watford.png"></image><image x="772" y="506.3421052631579" height="26" width="41" xmlns:xlink="http://www.w3.org/1999/xlink" xlink:href="/icons/NorwichCity.png"></image><g class="axis"><g class="tick" transform="translate(0,1)" style="opacity: 1;"><line x2="-6" y2="0"></line><text dy=".32em" x="-9" y="0" style="text-anchor: end;">1st</text></g><g class="tick" transform="translate(0,28.31578947368421)" style="opacity: 1;"><line x2="-6" y2="0"></line><text dy=".32em" x="-9" y="0" style="text-anchor: end;">2nd</text></g><g class="tick" transform="translate(0,55.63157894736842)" style="opacity: 1;"><line x2="-6" y2="0"></line><text dy=".32em" x="-9" y="0" style="text-anchor: end;">3rd</text></g><g class="tick" transform="translate(0,82.94736842105262)" style="opacity: 1;"><line x2="-6" y2="0"></line><text dy=".32em" x="-9" y="0" style="text-anchor: end;">4th</text></g><g class="tick" transform="translate(0,110.26315789473684)" style="opacity: 1;"><line x2="-6" y2="0"></line><text dy=".32em" x="-9" y="0" style="text-anchor: end;">5th</text></g><g class="tick" transform="translate(0,137.57894736842104)" style="opacity: 1;"><line x2="-6" y2="0"></line><text dy=".32em" x="-9" y="0" style="text-anchor: end;">6th</text></g><g class="tick" transform="translate(0,164.89473684210523)" style="opacity: 1;"><line x2="-6" y2="0"></line><text dy=".32em" x="-9" y="0" style="text-anchor: end;">7th</text></g><g class="tick" transform="translate(0,192.21052631578945)" style="opacity: 1;"><line x2="-6" y2="0"></line><text dy=".32em" x="-9" y="0" style="text-anchor: end;">8th</text></g><g class="tick" transform="translate(0,219.52631578947367)" style="opacity: 1;"><line x2="-6" y2="0"></line><text dy=".32em" x="-9" y="0" style="text-anchor: end;">9th</text></g><g class="tick" transform="translate(0,246.84210526315786)" style="opacity: 1;"><line x2="-6" y2="0"></line><text dy=".32em" x="-9" y="0" style="text-anchor: end;">10th</text></g><g class="tick" transform="translate(0,274.1578947368421)" style="opacity: 1;"><line x2="-6" y2="0"></line><text dy=".32em" x="-9" y="0" style="text-anchor: end;">11th</text></g><g class="tick" transform="translate(0,301.47368421052636)" style="opacity: 1;"><line x2="-6" y2="0"></line><text dy=".32em" x="-9" y="0" style="text-anchor: end;">12th</text></g><g class="tick" transform="translate(0,328.78947368421046)" style="opacity: 1;"><line x2="-6" y2="0"></line><text dy=".32em" x="-9" y="0" style="text-anchor: end;">13th</text></g><g class="tick" transform="translate(0,356.10526315789474)" style="opacity: 1;"><line x2="-6" y2="0"></line><text dy=".32em" x="-9" y="0" style="text-anchor: end;">14th</text></g><g class="tick" transform="translate(0,383.4210526315789)" style="opacity: 1;"><line x2="-6" y2="0"></line><text dy=".32em" x="-9" y="0" style="text-anchor: end;">15th</text></g><g class="tick" transform="translate(0,410.7368421052632)" style="opacity: 1;"><line x2="-6" y2="0"></line><text dy=".32em" x="-9" y="0" style="text-anchor: end;">16th</text></g><g class="tick" transform="translate(0,438.05263157894734)" style="opacity: 1;"><line x2="-6" y2="0"></line><text dy=".32em" x="-9" y="0" style="text-anchor: end;">17th</text></g><g class="tick" transform="translate(0,465.36842105263156)" style="opacity: 1;"><line x2="-6" y2="0"></line><text dy=".32em" x="-9" y="0" style="text-anchor: end;">18th</text></g><g class="tick" transform="translate(0,492.6842105263157)" style="opacity: 1;"><line x2="-6" y2="0"></line><text dy=".32em" x="-9" y="0" style="text-anchor: end;">19th</text></g><g class="tick" transform="translate(0,520)" style="opacity: 1;"><line x2="-6" y2="0"></line><text dy=".32em" x="-9" y="0" style="text-anchor: end;">20th</text></g><path class="domain" d="M-6,1H0V520H-6"></path></g><g class="axis" transform="translate(820)"><g class="tick" transform="translate(0,1)" style="opacity: 1;"><line x2="6" y2="0"></line><text dy=".32em" x="9" y="0" style="text-anchor: start;">1st</text></g><g class="tick" transform="translate(0,28.31578947368421)" style="opacity: 1;"><line x2="6" y2="0"></line><text dy=".32em" x="9" y="0" style="text-anchor: start;">2nd</text></g><g class="tick" transform="translate(0,55.63157894736842)" style="opacity: 1;"><line x2="6" y2="0"></line><text dy=".32em" x="9" y="0" style="text-anchor: start;">3rd</text></g><g class="tick" transform="translate(0,82.94736842105262)" style="opacity: 1;"><line x2="6" y2="0"></line><text dy=".32em" x="9" y="0" style="text-anchor: start;">4th</text></g><g class="tick" transform="translate(0,110.26315789473684)" style="opacity: 1;"><line x2="6" y2="0"></line><text dy=".32em" x="9" y="0" style="text-anchor: start;">5th</text></g><g class="tick" transform="translate(0,137.57894736842104)" style="opacity: 1;"><line x2="6" y2="0"></line><text dy=".32em" x="9" y="0" style="text-anchor: start;">6th</text></g><g class="tick" transform="translate(0,164.89473684210523)" style="opacity: 1;"><line x2="6" y2="0"></line><text dy=".32em" x="9" y="0" style="text-anchor: start;">7th</text></g><g class="tick" transform="translate(0,192.21052631578945)" style="opacity: 1;"><line x2="6" y2="0"></line><text dy=".32em" x="9" y="0" style="text-anchor: start;">8th</text></g><g class="tick" transform="translate(0,219.52631578947367)" style="opacity: 1;"><line x2="6" y2="0"></line><text dy=".32em" x="9" y="0" style="text-anchor: start;">9th</text></g><g class="tick" transform="translate(0,246.84210526315786)" style="opacity: 1;"><line x2="6" y2="0"></line><text dy=".32em" x="9" y="0" style="text-anchor: start;">10th</text></g><g class="tick" transform="translate(0,274.1578947368421)" style="opacity: 1;"><line x2="6" y2="0"></line><text dy=".32em" x="9" y="0" style="text-anchor: start;">11th</text></g><g class="tick" transform="translate(0,301.47368421052636)" style="opacity: 1;"><line x2="6" y2="0"></line><text dy=".32em" x="9" y="0" style="text-anchor: start;">12th</text></g><g class="tick" transform="translate(0,328.78947368421046)" style="opacity: 1;"><line x2="6" y2="0"></line><text dy=".32em" x="9" y="0" style="text-anchor: start;">13th</text></g><g class="tick" transform="translate(0,356.10526315789474)" style="opacity: 1;"><line x2="6" y2="0"></line><text dy=".32em" x="9" y="0" style="text-anchor: start;">14th</text></g><g class="tick" transform="translate(0,383.4210526315789)" style="opacity: 1;"><line x2="6" y2="0"></line><text dy=".32em" x="9" y="0" style="text-anchor: start;">15th</text></g><g class="tick" transform="translate(0,410.7368421052632)" style="opacity: 1;"><line x2="6" y2="0"></line><text dy=".32em" x="9" y="0" style="text-anchor: start;">16th</text></g><g class="tick" transform="translate(0,438.05263157894734)" style="opacity: 1;"><line x2="6" y2="0"></line><text dy=".32em" x="9" y="0" style="text-anchor: start;">17th</text></g><g class="tick" transform="translate(0,465.36842105263156)" style="opacity: 1;"><line x2="6" y2="0"></line><text dy=".32em" x="9" y="0" style="text-anchor: start;">18th</text></g><g class="tick" transform="translate(0,492.6842105263157)" style="opacity: 1;"><line x2="6" y2="0"></line><text dy=".32em" x="9" y="0" style="text-anchor: start;">19th</text></g><g class="tick" transform="translate(0,520)" style="opacity: 1;"><line x2="6" y2="0"></line><text dy=".32em" x="9" y="0" style="text-anchor: start;">20th</text></g><path class="domain" d="M6,1H0V520H6"></path></g></g></svg>